<svg width="35" height="20" viewBox="0 0 35 20" fill="none" xmlns="http://www.w3.org/2000/svg">
<path d="M17 1.49414C16.4477 1.49414 16 1.94186 16 2.49414C16 3.04643 16.4477 3.49414 17 3.49414V1.49414ZM18.9104 2.49414L19.8757 2.23273C19.7576 1.79682 19.3621 1.49414 18.9104 1.49414V2.49414ZM22.0149 13.9568L21.0497 14.2182C21.18 14.6992 21.6445 15.0109 22.139 14.9491L22.0149 13.9568ZM31.5672 12.7628L31.6912 13.7551C32.1159 13.702 32.4597 13.3845 32.5464 12.9654L31.5672 12.7628ZM33 5.83743L33.9793 6.04003C34.0402 5.74552 33.9653 5.43922 33.7754 5.206C33.5855 4.97279 33.3007 4.83743 33 4.83743V5.83743ZM19.8159 5.83743L18.8507 6.09884L19.8159 5.83743ZM17 3.49414H18.9104V1.49414H17V3.49414ZM22.139 14.9491L31.6912 13.7551L31.4431 11.7705L21.8909 12.9646L22.139 14.9491ZM32.5464 12.9654L33.9793 6.04003L32.0207 5.63482L30.5879 12.5602L32.5464 12.9654ZM17.9452 2.75556L18.8507 6.09884L20.7811 5.57601L19.8757 2.23273L17.9452 2.75556ZM18.8507 6.09884L21.0497 14.2182L22.9802 13.6954L20.7811 5.57601L18.8507 6.09884ZM33 4.83743H19.8159V6.83743H33V4.83743ZM24 17.0835C24 17.2216 23.8881 17.3335 23.75 17.3335V19.3335C24.9926 19.3335 26 18.3262 26 17.0835H24ZM23.75 17.3335C23.6119 17.3335 23.5 17.2216 23.5 17.0835H21.5C21.5 18.3262 22.5074 19.3335 23.75 19.3335V17.3335ZM23.5 17.0835C23.5 16.9455 23.6119 16.8335 23.75 16.8335V14.8335C22.5074 14.8335 21.5 15.8409 21.5 17.0835H23.5ZM23.75 16.8335C23.8881 16.8335 24 16.9455 24 17.0835H26C26 15.8409 24.9926 14.8335 23.75 14.8335V16.8335ZM30.6667 17.0835C30.6667 17.2216 30.5547 17.3335 30.4167 17.3335V19.3335C31.6593 19.3335 32.6667 18.3262 32.6667 17.0835H30.6667ZM30.4167 17.3335C30.2786 17.3335 30.1667 17.2216 30.1667 17.0835H28.1667C28.1667 18.3262 29.174 19.3335 30.4167 19.3335V17.3335ZM30.1667 17.0835C30.1667 16.9455 30.2786 16.8335 30.4167 16.8335V14.8335C29.174 14.8335 28.1667 15.8409 28.1667 17.0835H30.1667ZM30.4167 16.8335C30.5547 16.8335 30.6667 16.9455 30.6667 17.0835H32.6667C32.6667 15.8409 31.6593 14.8335 30.4167 14.8335V16.8335Z" fill="#DBEDF3"/>
<path d="M12.4824 16.0028C12.1825 16.7616 11.4642 17.2959 10.6258 17.2959C9.51766 17.2959 8.61937 16.3626 8.61937 15.2113C8.61937 14.06 9.51766 13.1267 10.6258 13.1267H18M8.31328 3.99686C8.0133 3.23811 7.295 2.70381 6.45659 2.70381C5.34849 2.70381 4.4502 3.63711 4.4502 4.78839C4.4502 5.93968 5.34849 6.87298 6.45659 6.87298H13.8308M6.01364 12.876C5.70198 13.6347 4.95568 14.169 4.08458 14.169C2.9333 14.169 2 13.2357 2 12.0844C2 10.9332 2.9333 9.99985 4.08458 9.99985H15.9154" stroke="#DBEDF3" stroke-width="2" stroke-linecap="round" stroke-linejoin="round"/>
</svg>
