<svg width="32" height="32" viewBox="0 0 32 32" fill="none" xmlns="http://www.w3.org/2000/svg">
<path d="M3.19995 2.9903C2.64767 2.9903 2.19995 3.43801 2.19995 3.9903C2.19995 4.54258 2.64767 4.9903 3.19995 4.9903V2.9903ZM6.25667 3.9903L7.22189 3.72888C7.10384 3.29298 6.70827 2.9903 6.25667 2.9903V3.9903ZM11.2238 22.3306L10.2586 22.592C10.3889 23.073 10.8534 23.3847 11.3479 23.3229L11.2238 22.3306ZM26.5074 20.4202L26.6314 21.4124C27.0561 21.3593 27.4 21.0419 27.4867 20.6228L26.5074 20.4202ZM28.7999 9.33955L29.7792 9.54216C29.8401 9.24764 29.7653 8.94134 29.5754 8.70813C29.3855 8.47491 29.1007 8.33955 28.7999 8.33955V9.33955ZM7.70542 9.33955L6.7402 9.60097L7.70542 9.33955ZM3.19995 4.9903H6.25667V2.9903H3.19995V4.9903ZM11.3479 23.3229L26.6314 21.4124L26.3834 19.4279L11.0998 21.3383L11.3479 23.3229ZM27.4867 20.6228L29.7792 9.54216L27.8207 9.13695L25.5281 20.2175L27.4867 20.6228ZM5.29144 4.25171L6.7402 9.60097L8.67065 9.07814L7.22189 3.72888L5.29144 4.25171ZM6.7402 9.60097L10.2586 22.592L12.1891 22.0692L8.67065 9.07814L6.7402 9.60097ZM28.7999 8.33955H7.70542V10.3396H28.7999V8.33955ZM15 27.3333C15 27.8856 14.5522 28.3333 14 28.3333V30.3333C15.6568 30.3333 17 28.9902 17 27.3333H15ZM14 28.3333C13.4477 28.3333 13 27.8856 13 27.3333H11C11 28.9902 12.3431 30.3333 14 30.3333V28.3333ZM13 27.3333C13 26.781 13.4477 26.3333 14 26.3333V24.3333C12.3431 24.3333 11 25.6765 11 27.3333H13ZM14 26.3333C14.5522 26.3333 15 26.781 15 27.3333H17C17 25.6765 15.6568 24.3333 14 24.3333V26.3333ZM25.6666 27.3333C25.6666 27.8856 25.2189 28.3333 24.6666 28.3333V30.3333C26.3235 30.3333 27.6666 28.9902 27.6666 27.3333H25.6666ZM24.6666 28.3333C24.1143 28.3333 23.6666 27.8856 23.6666 27.3333H21.6666C21.6666 28.9902 23.0098 30.3333 24.6666 30.3333V28.3333ZM23.6666 27.3333C23.6666 26.781 24.1143 26.3333 24.6666 26.3333V24.3333C23.0098 24.3333 21.6666 25.6765 21.6666 27.3333H23.6666ZM24.6666 26.3333C25.2189 26.3333 25.6666 26.781 25.6666 27.3333H27.6666C27.6666 25.6765 26.3235 24.3333 24.6666 24.3333V26.3333Z" fill="#404B69"/>
</svg>
