<svg width="32" height="32" viewBox="0 0 32 32" fill="none" xmlns="http://www.w3.org/2000/svg">
<path d="M0 4C0 1.79086 1.79086 0 4 0H28C30.2091 0 32 1.79086 32 4V28C32 30.2091 30.2091 32 28 32H4C1.79086 32 0 30.2091 0 28V4Z" fill="#D50004"/>
<path d="M8 10.1765H24M14 20.7647V14.4118M18 20.7647V14.4118M20 25H12C10.8954 25 10 24.0519 10 22.8824V11.2353C10 10.6505 10.4477 10.1765 11 10.1765H21C21.5523 10.1765 22 10.6505 22 11.2353V22.8824C22 24.0519 21.1046 25 20 25ZM14 10.1765H18C18.5523 10.1765 19 9.70242 19 9.11765V8.05882C19 7.47405 18.5523 7 18 7H14C13.4477 7 13 7.47405 13 8.05882V9.11765C13 9.70242 13.4477 10.1765 14 10.1765Z" stroke="white" stroke-width="2" stroke-linecap="round" stroke-linejoin="round"/>
</svg>
