<svg width="64" height="64" viewBox="0 0 64 64" fill="none" xmlns="http://www.w3.org/2000/svg">
<path d="M32 28.4089C36.6736 28.4089 40.4622 24.668 40.4622 20.0533C40.4622 15.4387 36.6736 11.6978 32 11.6978C27.3264 11.6978 23.5378 15.4387 23.5378 20.0533C23.5378 24.668 27.3264 28.4089 32 28.4089Z" fill="#00818A"/>
<path d="M19.1645 20.8889H20.0178V20.1244C20.023 17.9015 20.6501 15.7244 21.8283 13.8393C23.0064 11.9543 24.6886 10.4365 26.6845 9.45776C26.0936 8.09698 25.1452 6.92164 23.94 6.05658C22.7348 5.19152 21.3178 4.66904 19.8395 4.54462C18.3612 4.42021 16.8768 4.69851 15.544 5.34998C14.2111 6.00144 13.0796 7.00173 12.2696 8.24462C11.4596 9.4875 11.0014 10.9266 10.9436 12.409C10.8858 13.8914 11.2306 15.3617 11.9413 16.6639C12.652 17.9661 13.7022 19.0515 14.9803 19.8048C16.2583 20.5581 17.7165 20.9511 19.2 20.9422L19.1645 20.8889ZM44.0178 20.0533V20.8178H44.8711C46.3349 20.8031 47.7676 20.394 49.0185 19.6337C50.2693 18.8734 51.2921 17.79 51.9791 16.4974C52.6662 15.2048 52.992 13.751 52.9224 12.2888C52.8528 10.8266 52.3903 9.41028 51.5836 8.18881C50.7769 6.96734 49.6559 5.98593 48.3384 5.34789C47.021 4.70985 45.5559 4.43877 44.0974 4.56319C42.6388 4.68761 41.2408 5.20293 40.0505 6.05489C38.8602 6.90686 37.9215 8.06397 37.3334 9.40443C39.3298 10.3794 41.0139 11.8933 42.1951 13.7751C43.3763 15.6569 44.0077 17.8315 44.0178 20.0533ZM39.6267 29.2444C43.1611 29.9452 46.5786 31.1423 49.7778 32.8C50.2286 33.0473 50.6368 33.3654 50.9867 33.7422H60.4445V27.6622C60.4462 27.429 60.3842 27.1998 60.2651 26.9993C60.1461 26.7987 59.9745 26.6345 59.7689 26.5244C55.1612 24.1143 50.0355 22.8634 44.8356 22.88H43.6622C43.0461 25.3844 41.6291 27.6191 39.6267 29.2444ZM11.6089 37.1911C11.6057 36.2958 11.8475 35.4166 12.3081 34.6488C12.7688 33.8811 13.4307 33.254 14.2222 32.8355C17.4214 31.1778 20.839 29.9808 24.3734 29.28C22.3806 27.6685 20.9645 25.4539 20.3378 22.9689H19.1645C13.9645 22.9523 8.83886 24.2032 4.23113 26.6133C4.02557 26.7234 3.85399 26.8876 3.73493 27.0881C3.61587 27.2887 3.55385 27.5179 3.55558 27.7511V39.1111H11.6089V37.1911ZM38.1511 47.4489H48.7467V49.9378H38.1511V47.4489Z" fill="#00818A"/>
<path d="M58.3289 37.7956H46.1156V36.0178C46.1156 35.5463 45.9283 35.0941 45.5949 34.7607C45.2615 34.4273 44.8093 34.24 44.3378 34.24C43.8663 34.24 43.4141 34.4273 43.0807 34.7607C42.7473 35.0941 42.56 35.5463 42.56 36.0178V37.7956H39.1111V32.7644C36.7725 32.2713 34.3901 32.0152 32 32C26.3892 31.9788 20.8588 33.3339 15.8934 35.9467C15.6722 36.0614 15.4871 36.235 15.3585 36.4484C15.2298 36.6617 15.1627 36.9064 15.1645 37.1556V47.1289H27.8045V57.9556C27.8045 58.427 27.9918 58.8792 28.3252 59.2126C28.6586 59.546 29.1107 59.7333 29.5822 59.7333H58.3289C58.8004 59.7333 59.2526 59.546 59.586 59.2126C59.9194 58.8792 60.1067 58.427 60.1067 57.9556V39.5733C60.1067 39.1018 59.9194 38.6497 59.586 38.3163C59.2526 37.9829 58.8004 37.7956 58.3289 37.7956ZM56.5511 56.2133H31.36V41.3511H42.56V42.9689C42.56 43.4404 42.7473 43.8926 43.0807 44.226C43.4141 44.5594 43.8663 44.7467 44.3378 44.7467C44.8093 44.7467 45.2615 44.5594 45.5949 44.226C45.9283 43.8926 46.1156 43.4404 46.1156 42.9689V41.3511H56.5511V56.2133Z" fill="#00818A"/>
</svg>
