<svg width="32" height="32" viewBox="0 0 32 32" fill="none" xmlns="http://www.w3.org/2000/svg">
<path d="M4 12.5547C4 12.0622 4.25069 11.6001 4.67276 11.3147L15.0728 4.28156C15.6279 3.90615 16.3721 3.90615 16.9272 4.28156L27.3272 11.3147C27.7493 11.6001 28 12.0622 28 12.5547V25.7176C28 26.9781 26.9255 28 25.6 28H6.4C5.07452 28 4 26.9781 4 25.7176V12.5547Z" stroke="#404B69" stroke-width="2"/>
<path d="M19 17.5C19 19.1569 17.6569 20.5 16 20.5C14.3431 20.5 13 19.1569 13 17.5C13 15.8431 14.3431 14.5 16 14.5C17.6569 14.5 19 15.8431 19 17.5Z" stroke="#404B69" stroke-width="2"/>
</svg>
