<svg width="32" height="32" viewBox="0 0 32 32" fill="none" xmlns="http://www.w3.org/2000/svg">
<path fill-rule="evenodd" clip-rule="evenodd" d="M5.07525 8.27519C6.27543 7.07538 7.903 6.40136 9.60005 6.40136C11.2971 6.40136 12.9247 7.07538 14.1248 8.27519L16 10.1488L17.8752 8.27519C18.4656 7.66393 19.1718 7.17636 19.9527 6.84095C20.7335 6.50553 21.5733 6.32898 22.4231 6.32159C23.2729 6.31421 24.1156 6.47614 24.9022 6.79794C25.6887 7.11973 26.4033 7.59495 27.0042 8.19587C27.6051 8.79678 28.0803 9.51135 28.4021 10.2979C28.7239 11.0844 28.8858 11.9272 28.8784 12.777C28.8711 13.6267 28.6945 14.4666 28.3591 15.2474C28.0237 16.0282 27.5361 16.7344 26.9248 17.3248L16 28.2512L5.07525 17.3248C3.87543 16.1246 3.20142 14.497 3.20142 12.8C3.20142 11.1029 3.87543 9.47537 5.07525 8.27519V8.27519Z" stroke="#404B69" stroke-width="2" stroke-linejoin="round"/>
</svg>
