<svg width="18" height="18" viewBox="0 0 18 18" fill="none" xmlns="http://www.w3.org/2000/svg">
<path d="M14.9218 9.60662C15.1065 9.08613 14.8343 8.51447 14.3138 8.32978C13.7933 8.14509 13.2216 8.41731 13.0369 8.9378L14.9218 9.60662ZM12.4543 13.5702L13.3967 13.9046L12.4543 13.5702ZM11.4257 14.4608L11.6218 15.4413V15.4413L11.4257 14.4608ZM2.44727 16.2564L1.46314 16.079C1.4044 16.4047 1.51065 16.7384 1.7469 16.9702C1.98316 17.202 2.31882 17.3019 2.64338 17.237L2.44727 16.2564ZM4.08573 7.17039L5.06986 7.34786L4.08573 7.17039ZM5.03098 6.0995L5.32926 7.05398L5.32926 7.05398L5.03098 6.0995ZM9.72977 5.67882C10.2569 5.51409 10.5507 4.95321 10.386 4.42607C10.2212 3.89892 9.66036 3.60513 9.13322 3.76986L9.72977 5.67882ZM1.90258 15.3869C1.51206 15.7774 1.51206 16.4106 1.90258 16.8011C2.29311 17.1916 2.92627 17.1916 3.3168 16.8011L1.90258 15.3869ZM7.21497 12.9029C7.6055 12.5124 7.6055 11.8793 7.21497 11.4887C6.82445 11.0982 6.19128 11.0982 5.80076 11.4887L7.21497 12.9029ZM16.5781 6.02373L17.2853 5.31663L16.5781 6.02373ZM16.5781 7.32312L15.871 6.61602L16.5781 7.32312ZM11.3806 2.12556L10.6735 1.41845V1.41845L11.3806 2.12556ZM12.68 2.12556L11.9729 2.83266V2.83266L12.68 2.12556ZM9.75634 5.04919L10.4634 4.34208L9.75634 5.04919ZM9.75634 3.7498L10.4634 4.4569L9.75634 3.7498ZM13.6545 8.94736L12.9474 9.65447L13.6545 8.94736ZM14.9539 8.94736L15.661 9.65447L14.9539 8.94736ZM13.0369 8.9378L11.5118 13.2358L13.3967 13.9046L14.9218 9.60662L13.0369 8.9378ZM11.2296 13.4802L2.25115 15.2759L2.64338 17.237L11.6218 15.4413L11.2296 13.4802ZM3.43139 16.4339L5.06986 7.34786L3.10161 6.99293L1.46314 16.079L3.43139 16.4339ZM5.32926 7.05398L9.72977 5.67882L9.13322 3.76986L4.73271 5.14502L5.32926 7.05398ZM5.06986 7.34786C5.09486 7.20924 5.19481 7.096 5.32926 7.05398L4.73271 5.14502C3.88732 5.4092 3.25879 6.12129 3.10161 6.99293L5.06986 7.34786ZM11.5118 13.2358C11.4673 13.3612 11.3601 13.4541 11.2296 13.4802L11.6218 15.4413C12.4427 15.2772 13.1168 14.6935 13.3967 13.9046L11.5118 13.2358ZM3.3168 16.8011L7.21497 12.9029L5.80076 11.4887L1.90258 15.3869L3.3168 16.8011ZM14.3616 8.24026L10.4634 4.34208L9.04924 5.7563L12.9474 9.65447L14.3616 8.24026ZM10.4634 4.4569L12.0877 2.83266L10.6735 1.41845L9.04924 3.04269L10.4634 4.4569ZM11.9729 2.83266L15.871 6.73084L17.2853 5.31663L13.3871 1.41845L11.9729 2.83266ZM15.871 6.61602L14.2468 8.24026L15.661 9.65447L17.2853 8.03023L15.871 6.61602ZM15.871 6.73084C15.8393 6.69913 15.8393 6.64772 15.871 6.61602L17.2853 8.03023C18.0346 7.28089 18.0346 6.06597 17.2853 5.31663L15.871 6.73084ZM12.0877 2.83267C12.056 2.86437 12.0046 2.86437 11.9729 2.83266L13.3871 1.41845C12.6377 0.66911 11.4228 0.66911 10.6735 1.41845L12.0877 2.83267ZM10.4634 4.34208C10.4952 4.37379 10.4952 4.4252 10.4634 4.4569L9.04924 3.04269C8.29989 3.79203 8.29989 5.00695 9.04924 5.7563L10.4634 4.34208ZM12.9474 9.65447C13.6968 10.4038 14.9117 10.4038 15.661 9.65447L14.2468 8.24026C14.2785 8.20855 14.3299 8.20855 14.3616 8.24026L12.9474 9.65447ZM7.53982 9.97932C7.86693 9.65221 8.39728 9.65221 8.72439 9.97932L10.1386 8.56511C9.03044 7.45695 7.23376 7.45695 6.1256 8.56511L7.53982 9.97932ZM8.72439 9.97932C9.0515 10.3064 9.0515 10.8368 8.72439 11.1639L10.1386 12.5781C11.2468 11.4699 11.2468 9.67326 10.1386 8.56511L8.72439 9.97932ZM8.72439 11.1639C8.39728 11.491 7.86693 11.491 7.53982 11.1639L6.12561 12.5781C7.23376 13.6863 9.03044 13.6863 10.1386 12.5781L8.72439 11.1639ZM7.53982 11.1639C7.21271 10.8368 7.21271 10.3064 7.53982 9.97932L6.1256 8.56511C5.01745 9.67326 5.01745 11.4699 6.12561 12.5781L7.53982 11.1639Z" fill="white"/>
</svg>
