<svg width="80" height="28" viewBox="0 0 80 28" fill="none" xmlns="http://www.w3.org/2000/svg">
<path d="M0 4C0 1.79086 1.79086 0 4 0H76C78.2091 0 80 1.79086 80 4V24C80 26.2091 78.2091 28 76 28H4C1.79086 28 0 26.2091 0 24V4Z" fill="#404B69"/>
<path d="M38 8C38 6.89543 38.8954 6 40 6V6C41.1046 6 42 6.89543 42 8V20C42 21.1046 41.1046 22 40 22V22C38.8954 22 38 21.1046 38 20V8Z" fill="#DBEDF3"/>
<path d="M34 16C32.8954 16 32 15.1046 32 14V14C32 12.8954 32.8954 12 34 12L46 12C47.1046 12 48 12.8954 48 14V14C48 15.1046 47.1046 16 46 16L34 16Z" fill="#DBEDF3"/>
</svg>
