<svg width="64" height="64" viewBox="0 0 64 64" fill="none" xmlns="http://www.w3.org/2000/svg">
<path d="M32 10.6667C34.829 10.6667 37.5421 11.7905 39.5425 13.7909C41.5429 15.7912 42.6667 18.5043 42.6667 21.3333C42.6667 24.1623 41.5429 26.8754 39.5425 28.8758C37.5421 30.8762 34.829 32 32 32C29.171 32 26.4579 30.8762 24.4575 28.8758C22.4572 26.8754 21.3334 24.1623 21.3334 21.3333C21.3334 18.5043 22.4572 15.7912 24.4575 13.7909C26.4579 11.7905 29.171 10.6667 32 10.6667ZM32 37.3333C43.7867 37.3333 53.3334 42.1067 53.3334 48V53.3333H10.6667V48C10.6667 42.1067 20.2134 37.3333 32 37.3333Z" fill="#00818A"/>
</svg>
