<svg width="32" height="35" viewBox="0 0 32 35" fill="none" xmlns="http://www.w3.org/2000/svg">
<path d="M0 4C0 1.79086 1.79086 0 4 0H28C30.2091 0 32 1.79086 32 4V28C32 30.2091 30.2091 32 28 32H4C1.79086 32 0 30.2091 0 28V4Z" fill="#404B69"/>
<g filter="url(#filter0_d_30_3455)">
<path d="M8.7999 19.5999L12.9999 23.1999M8.1999 19.5999L20.0313 7.35533C21.3052 6.08143 23.3706 6.08143 24.6445 7.35533C25.9184 8.62923 25.9184 10.6946 24.6445 11.9685L12.3999 23.7999L6.3999 25.5999L8.1999 19.5999Z" stroke="#DBEDF3" stroke-width="2" stroke-linecap="round" stroke-linejoin="round"/>
</g>
<defs>
<filter id="filter0_d_30_3455" x="0" y="4" width="32" height="32" filterUnits="userSpaceOnUse" color-interpolation-filters="sRGB">
<feFlood flood-opacity="0" result="BackgroundImageFix"/>
<feColorMatrix in="SourceAlpha" type="matrix" values="0 0 0 0 0 0 0 0 0 0 0 0 0 0 0 0 0 0 127 0" result="hardAlpha"/>
<feOffset dy="4"/>
<feGaussianBlur stdDeviation="2"/>
<feComposite in2="hardAlpha" operator="out"/>
<feColorMatrix type="matrix" values="0 0 0 0 0 0 0 0 0 0 0 0 0 0 0 0 0 0 0.25 0"/>
<feBlend mode="normal" in2="BackgroundImageFix" result="effect1_dropShadow_30_3455"/>
<feBlend mode="normal" in="SourceGraphic" in2="effect1_dropShadow_30_3455" result="shape"/>
</filter>
</defs>
</svg>
