<svg width="803" height="85" viewBox="0 0 803 85" fill="none" xmlns="http://www.w3.org/2000/svg">
<path d="M0.921875 84V26.3438H1.85938L17.4453 51.4219V84H0.921875ZM0.921875 12.75V1.96875H14.3984L53.0703 64.3125V84H45.2188L0.921875 12.75ZM36.5469 25.6406V1.96875H53.0703V50.7188H52.1328L36.5469 25.6406ZM62.2653 65.8359V35.1328C62.3434 31.3047 64.1012 27.5547 67.5387 23.8828C71.7575 19.5078 76.9137 17.2812 83.0075 17.2031V31.9688C80.7419 31.9688 79.1794 32.9453 78.32 34.8984C78.0856 35.3672 77.9684 35.7969 77.9684 36.1875V42.0469H95.4294V36.3047C95.3512 33.4141 93.32 31.9688 89.3356 31.9688V17.2031C95.0387 17.2031 100.039 19.1562 104.336 23.0625C108.086 26.5 110 30.4844 110.078 35.0156V57.1641H77.9684V65.8359C78.5153 68.1016 80.2341 69.3516 83.1247 69.5859V84C75.7809 84 69.9606 80.9922 65.6637 74.9766C63.3981 71.7734 62.2653 68.7266 62.2653 65.8359ZM89.3356 84V69.7031C93.5544 69.625 96.2497 67.6328 97.4216 63.7266L110.195 68.5312C109.023 73.5312 106.054 77.5547 101.289 80.6016C97.6169 82.8672 93.6325 84 89.3356 84ZM119.39 84V0.09375H135.562V84H119.39ZM141.773 84V68.7656H145.992C146.46 68.7656 146.89 68.7266 147.281 68.6484C147.749 68.4922 148.14 68.3359 148.452 68.1797C148.765 68.0234 149.038 67.8281 149.273 67.5938C149.507 67.3594 149.663 67.125 149.742 66.8906C149.898 66.6562 150.015 66.4609 150.093 66.3047C150.171 66.0703 150.249 65.875 150.327 65.7188V65.6016V35.6016C150.327 34.6641 149.742 33.8438 148.57 33.1406C147.867 32.75 147.046 32.5156 146.109 32.4375H141.773V17.2031H145.992C153.023 17.2031 158.531 20.2891 162.515 26.4609C164.468 29.5078 165.484 32.3984 165.562 35.1328V65.8359C165.562 69.3516 164.038 72.9844 160.992 76.7344C157.007 81.5 152.007 83.9219 145.992 84H141.773ZM173.351 66.3047V17.2031H189.288V64.4297C189.444 67.3984 191.241 68.9219 194.679 69V84.5859C187.023 84.5859 181.046 81.5781 176.749 75.5625C174.483 72.3594 173.351 69.2734 173.351 66.3047ZM200.069 84.5859V69C203.429 68.6094 205.265 67.0859 205.577 64.4297V17.2031H221.515V66.3047C221.515 69.9766 219.796 73.6875 216.358 77.4375C211.983 82.125 206.554 84.5078 200.069 84.5859ZM230.71 84V0.09375H247.585V84H230.71ZM255.256 68.5312V62.5547C255.334 57.5547 257.444 53.6875 261.584 50.9531C262.6 50.4062 266.702 48.8828 273.889 46.3828C282.248 43.5703 286.428 41.0703 286.428 38.8828V36.1875C286.35 33.375 284.631 31.8516 281.272 31.6172V17.2031C287.131 17.2031 292.053 19.1953 296.038 23.1797C299.631 26.8516 301.428 30.8359 301.428 35.1328V65.7188C301.506 68.0625 302.6 69.3125 304.709 69.4688V84C299.944 84 296.116 82.75 293.225 80.25C290.178 82.6719 286.233 83.9219 281.389 84V69.5859C282.014 69.5859 282.6 69.5078 283.147 69.3516C285.334 68.7266 286.428 67.2422 286.428 64.8984V55.2891C284.319 56.5391 280.217 58.0234 274.123 59.7422C271.623 60.3672 270.178 60.7969 269.788 61.0312C268.85 61.5 268.342 62.3984 268.264 63.7266V65.3672C268.264 65.8359 268.303 66.3047 268.381 66.7734C268.85 68.6484 271.077 69.5859 275.061 69.5859V84C269.827 84 265.373 82.6719 261.702 80.0156C257.405 76.8906 255.256 73.0625 255.256 68.5312ZM256.077 33.9609C256.155 29.9766 257.795 26.3438 260.998 23.0625C265.061 19.1562 269.788 17.2031 275.178 17.2031V31.6172C271.584 31.6953 269.748 34.1953 269.67 39.1172L256.077 33.9609ZM338.92 84V1.96875H355.326V84H338.92ZM361.771 84V69.5859H362.357C367.045 69.5859 370.17 67.6328 371.732 63.7266C372.279 62.4766 372.552 61.1875 372.552 59.8594C372.552 55.9531 370.99 53.1406 367.865 51.4219C366.302 50.5625 364.584 50.1328 362.709 50.1328H361.771V35.8359H362.709C367.084 35.8359 370.092 33.9609 371.732 30.2109C372.279 28.8828 372.552 27.5156 372.552 26.1094C372.552 22.2813 370.951 19.4688 367.748 17.6719C366.107 16.8125 364.31 16.3828 362.357 16.3828H361.771V1.96875H364.584C374.74 1.96875 381.888 5.67969 386.029 13.1016C387.982 16.6953 388.959 20.6406 388.959 24.9375C388.959 31.7344 386.888 37.2422 382.748 41.4609C382.123 42.0078 381.537 42.5156 380.99 42.9844C385.521 46.3438 388.138 51.4609 388.842 58.3359C388.92 59.2734 388.959 60.1719 388.959 61.0312C388.959 68.6094 386.302 74.5469 380.99 78.8438C376.615 82.2812 371.146 84 364.584 84H361.771ZM396.865 65.8359V35.25C396.865 31.4219 398.544 27.6719 401.904 24C406.122 19.5469 411.474 17.2812 417.958 17.2031V32.4375C414.443 32.75 412.568 34.2344 412.333 36.8906V64.1953C412.49 67.2422 414.365 68.8047 417.958 68.8828V84.1172C410.302 84.1172 404.365 81.0312 400.146 74.8594C397.958 71.6562 396.865 68.6484 396.865 65.8359ZM423.349 84.1172V68.8828C426.63 68.4922 428.427 67.0078 428.74 64.4297L428.622 36.8906C428.076 34.0781 426.279 32.5938 423.232 32.4375V17.2031C430.576 17.2031 436.318 20.1719 440.458 26.1094C442.646 29.3125 443.74 32.3594 443.74 35.25V65.8359C443.74 69.7422 442.06 73.5703 438.701 77.3203C434.638 81.7734 429.521 84.0391 423.349 84.1172ZM452.466 65.8359V35.25C452.466 31.4219 454.146 27.6719 457.505 24C461.724 19.5469 467.075 17.2812 473.56 17.2031V32.4375C470.044 32.75 468.169 34.2344 467.935 36.8906V64.1953C468.091 67.2422 469.966 68.8047 473.56 68.8828V84.1172C465.903 84.1172 459.966 81.0312 455.747 74.8594C453.56 71.6562 452.466 68.6484 452.466 65.8359ZM478.95 84.1172V68.8828C482.232 68.4922 484.028 67.0078 484.341 64.4297L484.224 36.8906C483.677 34.0781 481.88 32.5938 478.833 32.4375V17.2031C486.177 17.2031 491.919 20.1719 496.06 26.1094C498.247 29.3125 499.341 32.3594 499.341 35.25V65.8359C499.341 69.7422 497.661 73.5703 494.302 77.3203C490.239 81.7734 485.122 84.0391 478.95 84.1172ZM508.536 84V0.09375H524.708V84H508.536ZM528.106 50.3672L542.52 17.2031H559.63L544.864 50.3672L559.864 84H542.872L528.106 50.3672ZM564.372 66.4219L578.903 63.7266C578.903 66.3047 580.231 68.1406 582.887 69.2344C583.825 69.5469 584.684 69.7422 585.465 69.8203V84.5859C576.403 84.5859 570.114 81.3828 566.598 74.9766C565.114 72.3203 564.372 69.4688 564.372 66.4219ZM565.075 35.4844C565.075 28.2188 568.473 22.8281 575.27 19.3125C578.629 17.5156 581.95 16.6172 585.231 16.6172V31.1484C581.403 31.2266 579.489 32.6719 579.489 35.4844C579.489 38.4531 583.083 41.0703 590.27 43.3359C592.926 44.1953 596.051 45.0156 599.645 45.7969C605.036 46.8125 608.864 49.8203 611.129 54.8203C612.301 57.3984 612.887 60.25 612.887 63.375C612.887 71.5 609.684 77.4766 603.278 81.3047C599.606 83.4922 595.426 84.5859 590.739 84.5859V69.8203C593.473 69.8203 595.504 68.9219 596.833 67.125C597.458 66.2656 597.77 65.3281 597.77 64.3125C597.77 61.8906 594.801 59.7812 588.864 57.9844C587.926 57.75 586.481 57.3594 584.528 56.8125C580.387 55.7188 577.536 54.8203 575.973 54.1172C570.27 51.2266 566.833 46.9688 565.661 41.3438C565.27 39.4688 565.075 37.5156 565.075 35.4844ZM590.504 31.1484L590.622 16.6172C597.653 16.6172 603.317 19.1953 607.614 24.3516C610.348 27.7109 611.715 31.2656 611.715 35.0156L597.301 37.4766C597.301 33.9609 595.426 31.8906 591.676 31.2656C591.208 31.1875 590.817 31.1484 590.504 31.1484ZM616.692 32.3203V17.2031H624.895V0.09375H640.598V17.2031H648.332V32.4375H640.598V63.4922C640.754 66.3047 642.199 67.75 644.934 67.8281H648.332L651.848 84H644.817C634.582 84 628.332 80.1328 626.067 72.3984C625.285 69.5859 624.895 66.2266 624.895 62.3203V32.3203H616.692ZM657.293 65.8359V35.25C657.293 31.4219 658.972 27.6719 662.332 24C666.551 19.5469 671.902 17.2812 678.387 17.2031V32.4375C674.871 32.75 672.996 34.2344 672.762 36.8906V64.1953C672.918 67.2422 674.793 68.8047 678.387 68.8828V84.1172C670.73 84.1172 664.793 81.0312 660.574 74.8594C658.387 71.6562 657.293 68.6484 657.293 65.8359ZM683.777 84.1172V68.8828C687.058 68.4922 688.855 67.0078 689.168 64.4297L689.051 36.8906C688.504 34.0781 686.707 32.5938 683.66 32.4375V17.2031C691.004 17.2031 696.746 20.1719 700.887 26.1094C703.074 29.3125 704.168 32.3594 704.168 35.25V65.8359C704.168 69.7422 702.488 73.5703 699.129 77.3203C695.066 81.7734 689.949 84.0391 683.777 84.1172ZM713.363 84V17.2031H729.3V24.5859C732.035 21.0703 735.746 18.6484 740.433 17.3203C742.074 16.8516 743.714 16.6172 745.355 16.6172H749.574L745.941 32.3203C741.019 32.3984 736.761 34.5469 733.167 38.7656C730.589 41.8125 729.3 44.9766 729.3 48.2578V84H713.363ZM755.019 65.8359V35.1328C755.097 31.3047 756.855 27.5547 760.292 23.8828C764.511 19.5078 769.667 17.2812 775.761 17.2031V31.9688C773.495 31.9688 771.933 32.9453 771.073 34.8984C770.839 35.3672 770.722 35.7969 770.722 36.1875V42.0469H788.183V36.3047C788.105 33.4141 786.073 31.9688 782.089 31.9688V17.2031C787.792 17.2031 792.792 19.1562 797.089 23.0625C800.839 26.5 802.753 30.4844 802.831 35.0156V57.1641H770.722V65.8359C771.269 68.1016 772.987 69.3516 775.878 69.5859V84C768.534 84 762.714 80.9922 758.417 74.9766C756.152 71.7734 755.019 68.7266 755.019 65.8359ZM782.089 84V69.7031C786.308 69.625 789.003 67.6328 790.175 63.7266L802.948 68.5312C801.777 73.5312 798.808 77.5547 794.042 80.6016C790.37 82.8672 786.386 84 782.089 84Z" fill="#283149"/>
</svg>
